<svg width="49" height="73" viewBox="0 0 49 73" fill="none" xmlns="http://www.w3.org/2000/svg">
<path d="M24.7202 0C25.7064 0.095092 26.6963 0.155951 27.6749 0.292883C34.4643 1.2438 39.9052 4.50166 43.9921 10.0056C46.596 13.5126 48.1056 17.4741 48.5038 21.8217C48.9249 26.4242 48.208 30.8517 46.2129 35.0509C44.3164 39.0429 41.7202 42.5727 39.0499 46.0531C37.3052 48.3277 35.5339 50.5832 33.7778 52.8483C33.6374 53.0309 33.5161 53.2287 33.2942 53.552C33.7247 53.6661 34.0433 53.7764 34.3733 53.8354C37.6731 54.425 40.8933 55.2675 43.8651 56.8726C45.1604 57.5725 46.376 58.3846 47.3091 59.5656C49.2624 62.0399 48.9173 65.0829 46.505 67.1521C44.233 69.0977 41.5495 70.1836 38.7389 70.9938C34.7393 72.1482 30.6448 72.6503 26.4839 72.7549C21.6631 72.8766 16.8897 72.5875 12.1884 71.4597C9.46314 70.8074 6.79292 69.9725 4.42044 68.432C3.53668 67.8577 2.68704 67.1768 1.97966 66.4009C-0.269552 63.9361 0.234908 60.7657 2.78566 58.5767C4.99315 56.6824 7.63115 55.6364 10.381 54.8643C11.8584 54.4497 13.3698 54.1473 14.8737 53.8297C15.9073 53.611 15.9453 53.5387 15.308 52.7095C12.5923 49.1778 9.82724 45.6822 7.18925 42.0953C4.76746 38.8013 2.60552 35.3248 1.53212 31.3233C-0.694335 23.0256 0.684359 15.4087 6.18601 8.72945C10.3241 3.70669 15.7367 0.935705 22.1865 0.197791C22.9356 0.112209 23.6886 0.0646626 24.4377 0C24.5325 0 24.6273 0 24.7221 0L24.7202 0ZM45.9057 24.2903C45.8716 17.8088 43.4459 12.3696 38.6251 8.07521C31.7902 1.98552 21.629 1.04221 13.7586 5.73595C4.56457 11.219 1.14522 21.9168 4.45456 31.6828C5.70433 35.3704 7.84167 38.5674 10.1573 41.6389C14.7505 47.7305 19.3949 53.784 24.0166 59.8528C24.5192 60.5128 24.6349 60.5147 25.1583 59.8224C27.692 56.4809 30.2446 53.1526 32.7499 49.7902C35.7918 45.7069 38.9153 41.6769 41.779 37.4701C44.453 33.5428 45.9986 29.1552 45.9038 24.2903H45.9057ZM24.5799 70.157C26.6774 70.0239 28.7825 69.963 30.8705 69.7443C34.6976 69.3449 38.4601 68.6032 41.9515 66.9105C43.0401 66.3818 44.0775 65.6572 44.9764 64.8432C46.2432 63.6945 46.2452 62.1065 44.9518 60.9844C43.9466 60.1134 42.7879 59.3697 41.5912 58.784C39.0006 57.5155 36.2052 56.865 33.3681 56.4219C30.9084 56.0377 31.4356 55.8723 29.9545 57.8407C28.5435 59.714 27.1932 61.631 25.7917 63.512C25.0938 64.4496 24.0849 64.4305 23.3585 63.512C23.2258 63.3446 23.1044 63.1696 22.9793 62.9966C21.481 60.9521 19.9715 58.9152 18.496 56.8555C18.1186 56.3287 17.6957 56.0872 17.0566 56.2355C14.5039 56.8289 11.9248 57.3234 9.40626 58.0385C7.54013 58.5691 5.78586 59.4553 4.33886 60.8094C2.91271 62.1426 2.90703 63.6413 4.30283 65.0087C5.78018 66.456 7.6425 67.2396 9.55225 67.8805C14.4243 69.5161 19.4519 70.1266 24.5799 70.157Z" fill="white"/>
<path d="M34.4004 24.1894C34.4554 29.6001 30.1428 33.9743 24.662 34.0675C19.2552 34.1607 14.8345 29.7979 14.7416 24.2825C14.6506 18.8414 19.0902 14.3473 24.5691 14.334C30.0272 14.3188 34.3454 18.6474 34.4023 24.1894H34.4004ZM31.6866 24.2141C31.6866 20.1441 28.6579 17.0784 24.626 17.0746C20.5221 17.0689 17.4725 20.1023 17.4725 24.1913C17.4725 28.2707 20.4917 31.3251 24.5312 31.3289C28.6371 31.3346 31.6847 28.303 31.6866 24.2141Z" fill="white"/>
<path d="M42.9085 23.3474C42.9085 23.6498 42.9294 24.0073 42.9047 24.3611C42.8516 25.1066 42.4534 25.5288 41.7763 25.5953C41.0405 25.6676 40.5455 25.3443 40.3521 24.614C40.2629 24.2736 40.2307 23.9141 40.2098 23.5623C39.8021 17.0028 36.5572 12.4175 30.6346 9.68646C30.2704 9.51909 29.8816 9.38026 29.5649 9.14633C29.0605 8.77357 28.8822 8.24296 29.1193 7.63437C29.3469 7.0467 29.8209 6.79946 30.4164 6.86603C30.809 6.90977 31.2111 7.01437 31.5695 7.17603C38.0327 10.0858 41.8067 15.0477 42.8327 22.0884C42.8896 22.4858 42.8819 22.8909 42.9066 23.3474H42.9085Z" fill="white"/>
<path d="M24.7116 5.85938C25.4854 5.85748 25.9576 6.31582 25.9727 7.08607C25.9879 7.89055 25.5043 8.38312 24.704 8.37552C23.9606 8.36981 23.4258 7.86392 23.4068 7.14883C23.386 6.41091 23.9416 5.86128 24.7116 5.85938Z" fill="white"/>
</svg>
