<svg width="64" height="64" viewBox="0 0 64 64" fill="none" xmlns="http://www.w3.org/2000/svg">
<path d="M62.5508 34.2997C61.0734 31.8577 59.048 30.0281 56.4081 28.9061C55.7007 28.6056 55.6818 28.4572 56.1862 27.9057C56.5371 27.5215 56.9221 27.1564 57.2046 26.7246C59.0101 23.9822 58.6251 20.1671 56.3342 17.8659C54.1058 15.6255 50.2237 15.2014 47.5307 16.9035C43.7643 19.2847 43.1651 24.5661 46.2867 27.8391C46.4858 28.0483 46.6641 28.2785 46.8537 28.501C46.7285 28.6189 46.6869 28.6854 46.6262 28.7121C44.1741 29.7524 42.1258 31.2986 40.5745 33.4914C40.4532 33.6626 40.0359 33.8052 39.8614 33.7253C38.7482 33.2156 37.6653 32.6413 36.4023 32.0023C38.405 30.3496 39.668 28.3983 39.7666 25.8251C39.8652 23.2652 39.0782 21.0819 37.1988 19.2961C34.5115 16.7419 29.8102 16.5023 26.7057 18.832C25.1714 19.9826 24.172 21.5193 23.7737 23.404C23.0379 26.8844 24.1397 29.7429 26.9294 32.0099C25.6682 32.6451 24.5683 33.2346 23.4305 33.7367C23.2541 33.8147 22.8065 33.5618 22.6453 33.3431C21.1566 31.3309 19.281 29.8284 16.9863 28.8433C16.8213 28.7729 16.6771 28.655 16.44 28.5086C16.6752 28.2537 16.8592 28.0483 17.0469 27.8505C19.4592 25.3306 19.7191 21.1504 17.6235 18.5125C15.0727 15.3003 10.2158 14.899 7.13593 17.7784C4.49225 20.2489 4.05227 24.9046 7.0449 27.8011C7.72573 28.461 7.68786 28.5808 6.82118 28.9612C4.26853 30.0795 2.27533 31.8482 0.839708 34.2274C-1.33554 37.8333 0.934553 41.9394 5.12954 42.0154C6.38311 42.0383 7.63664 42.0211 8.89211 42.0211C11.4713 42.0211 14.0505 42.025 16.6297 42.0211C17.1493 42.0211 17.5248 42.1143 17.631 42.7534C18.1564 45.9085 20.2975 47.7172 23.4703 47.721C28.8657 47.7248 34.2612 47.6373 39.6529 47.7552C42.7138 47.8218 45.5394 45.667 45.7329 42.7001C45.7632 42.2342 46.042 42.0345 46.4877 42.0307C46.7475 42.0288 47.0073 42.0211 47.269 42.0211C50.9368 42.0211 54.6046 42.0573 58.2705 42.0059C62.3896 41.9489 64.6729 37.8124 62.5508 34.3016V34.2997ZM46.4327 22.8582C46.4365 20.1519 48.5985 17.9876 51.3161 17.9705C53.9447 17.9534 56.2318 20.2299 56.2356 22.8658C56.2394 25.5341 54.0091 27.7745 51.3446 27.7802C48.5985 27.7859 46.4308 25.6121 46.4346 22.8582H46.4327ZM25.7024 25.264C25.71 21.7761 28.1546 19.3721 31.6915 19.374C35.2038 19.3759 37.6464 21.8084 37.6464 25.3021C37.6464 28.7958 35.107 31.3537 31.6554 31.3366C28.1905 31.3195 25.6967 28.7748 25.7024 25.264ZM7.11324 22.8506C7.12652 20.2185 9.40606 17.9553 12.0289 17.9705C14.7389 17.9857 16.9046 20.1462 16.9141 22.8392C16.9236 25.6121 14.8072 27.7612 12.0441 27.7802C9.37952 27.7992 7.09802 25.5189 7.1113 22.8506H7.11324ZM18.291 39.3205C18.0521 39.6172 17.559 39.8531 17.1759 39.8645C15.1676 39.9177 13.1553 39.8892 11.1451 39.8892C9.18224 39.8892 7.21944 39.912 5.25659 39.8835C2.58257 39.8435 1.33277 37.6355 2.66978 35.3058C3.00925 34.7143 3.44163 34.1684 3.8911 33.6531C5.91652 31.3385 8.50712 30.0719 11.5434 29.9768C15.4994 29.8551 18.6968 31.4621 21.0219 34.7219C21.3045 35.1175 21.2059 35.4332 20.9214 35.8059C20.0301 36.9661 19.2089 38.1832 18.2891 39.3205H18.291ZM40.0662 45.589C40.0188 45.589 39.9714 45.589 39.924 45.589C37.159 45.589 34.392 45.589 31.627 45.589C28.9321 45.589 26.2372 45.5985 23.5423 45.589C20.3202 45.5738 18.7158 42.7591 20.3752 39.9672C22.8406 35.8211 26.5387 33.7615 31.3273 33.6131C35.2037 33.4933 38.532 34.7846 41.2099 37.5956C41.9836 38.4057 42.6436 39.37 43.1708 40.3627C44.4964 42.8561 42.8787 45.5186 40.0662 45.589ZM58.2383 39.8854C58.1681 39.8892 58.096 39.8892 58.0258 39.8892C56.0857 39.8892 54.1475 39.8892 52.2074 39.8892C50.2199 39.8892 48.2344 39.8778 46.2469 39.8968C45.6097 39.9025 45.2379 39.6553 44.8814 39.1056C44.1626 37.9969 43.3604 36.9375 42.5203 35.9181C42.1144 35.4256 42.0689 35.0661 42.4368 34.5469C46.2886 29.081 54.2348 28.3869 58.9456 33.1491C59.6378 33.8489 60.2845 34.6382 60.7643 35.4921C61.9762 37.6488 60.7113 39.7827 58.2383 39.8835V39.8854Z" fill="white"/>
<path d="M59.1161 45.8157C58.6382 45.4924 58.1527 45.5646 57.7791 46.0002C57.5041 46.3216 57.2727 46.6867 57.0584 47.0538C55.2985 50.053 53.0417 52.6338 50.3468 54.8038C43.5802 60.2487 35.8275 62.3788 27.2839 61.1027C18.0557 59.7238 11.0501 54.8228 6.17048 46.856C5.98463 46.5536 5.78934 46.2512 5.55607 45.9887C5.19575 45.5856 4.73491 45.4943 4.27975 45.7986C3.84357 46.0914 3.68041 46.527 3.88333 47.0424C3.97815 47.2839 4.07683 47.5349 4.22855 47.7422C5.67745 49.7297 6.95566 51.8787 8.62645 53.6608C14.8431 60.2925 22.6679 63.3145 32.0592 63.5446C33.0018 63.4648 34.3501 63.4077 35.6833 63.2289C44.7769 62.0175 52.1125 57.7935 57.4889 50.285C58.2172 49.2675 58.824 48.1607 59.4423 47.069C59.7059 46.603 59.5693 46.1238 59.1142 45.8176L59.1161 45.8157Z" fill="white"/>
<path d="M7.80653 12.5255C8.27116 12.9249 8.79462 12.807 9.40908 12.1813C10.2871 11.2874 11.1443 10.3688 12.0565 9.513C14.0763 7.61497 16.371 6.103 18.8838 4.96C24.8805 2.23276 31.1293 1.45681 37.6001 2.73865C43.8262 3.97294 49.1438 6.85803 53.4128 11.6145C53.6973 11.9321 53.9817 12.2593 54.3155 12.5179C54.9299 12.9934 55.7663 12.7233 55.844 11.9797C55.8858 11.586 55.7246 11.0516 55.4571 10.7663C54.2946 9.52441 53.1416 8.25018 51.8368 7.16803C46.0052 2.33356 39.2196 0.129325 31.8215 0C25.5347 0.0817791 19.7789 1.61656 14.537 4.93908C12.0204 6.53472 9.79589 8.4746 7.87098 10.7549C7.31531 11.4129 7.30396 12.0938 7.80653 12.5255Z" fill="white"/>
<path d="M31.6934 56.7417C35.9604 56.7683 39.9392 55.6919 43.6677 53.6569C46.5333 52.0955 48.9475 49.9864 51.0051 47.4626C51.4868 46.8711 51.4546 46.2778 50.9881 45.8822C50.5273 45.4923 49.9355 45.5779 49.4159 46.1142C49.3002 46.2321 49.213 46.3786 49.0954 46.4946C47.9727 47.6091 46.9315 48.83 45.7026 49.8114C42.2207 52.5881 38.2002 54.0734 33.772 54.4557C28.0257 54.9521 22.7952 53.5447 18.0976 50.1803C16.5273 49.0564 15.1922 47.687 13.9842 46.1808C13.4854 45.5589 12.852 45.4752 12.3703 45.8708C11.8772 46.274 11.8526 46.8807 12.3779 47.5007C12.9734 48.2043 13.6011 48.8852 14.2554 49.5356C19.08 54.3473 24.9458 56.6295 31.6953 56.7379L31.6934 56.7417Z" fill="white"/>
<path d="M46.0369 11.3788C41.7319 8.38718 36.9831 6.80485 31.5915 6.83528C26.4103 6.78203 21.618 8.37577 17.2769 11.4035C16.5544 11.9075 16.3325 12.5351 16.67 13.0771C17 13.6058 17.7321 13.6591 18.4319 13.1684C22.6231 10.2206 27.2676 8.8227 32.388 8.97294C36.0274 9.07945 39.4467 9.97712 42.6308 11.7515C43.416 12.189 44.1651 12.691 44.9218 13.1779C45.6462 13.6439 46.3081 13.5963 46.6704 13.0315C47.0098 12.5009 46.805 11.9246 46.0995 11.4206C46.0805 11.4073 46.0596 11.394 46.0407 11.3807L46.0369 11.3788Z" fill="white"/>
</svg>
