<svg width="73" height="55" viewBox="0 0 73 55" fill="none" xmlns="http://www.w3.org/2000/svg">
<path d="M72.5995 12.2397C72.535 12.4679 72.4667 12.6942 72.4079 12.9244C72.0305 14.4401 70.83 15.5223 69.3944 15.6383C67.6535 15.779 66.3658 15.0259 65.702 13.4759C65.5749 13.1792 65.463 12.8787 65.3018 12.4736C64.9946 12.7361 64.7556 12.9148 64.547 13.124C62.6866 14.9821 60.8338 16.8498 58.9733 18.7079C57.2912 20.3872 55.1159 20.3872 53.4376 18.7193C52.7662 18.0517 52.074 17.4013 51.4387 16.6995C50.9759 16.1898 50.6441 16.224 50.168 16.7052C47.1394 19.7748 44.086 22.8177 41.0422 25.8721C40.3557 26.5606 39.5914 27.0779 38.5882 27.1729C37.3763 27.2871 36.3503 26.9067 35.4931 26.0566C34.8028 25.3719 34.122 24.6815 33.4317 23.9969C32.7983 23.3674 32.7546 23.3655 32.1288 23.9912C29.1153 27.0094 26.1075 30.0295 23.0922 33.0477C22.2672 33.8731 21.3531 34.495 20.1033 34.4494C19.1247 34.4152 18.3244 34.0614 17.6398 33.3672C15.7585 31.4635 13.8639 29.5712 11.9693 27.6788C11.2563 26.9656 11.1349 26.9656 10.4199 27.6788C9.01086 29.0843 7.62453 30.5126 6.19649 31.899C4.66225 33.3901 2.4927 33.392 1.0438 31.9504C-0.249589 30.6628 -0.386148 28.5023 0.888279 27.1825C3.48644 24.4894 6.13013 21.8364 8.81553 19.2309C10.1355 17.949 12.2974 18.0745 13.6401 19.4001C15.5613 21.2982 17.4577 23.2209 19.3675 25.1304C20.0824 25.8436 20.2038 25.8455 20.915 25.1323C23.9607 22.0817 27.0027 19.0255 30.0503 15.9749C31.7476 14.2747 33.7787 14.2728 35.4893 15.9654C36.1797 16.6482 36.8871 17.3176 37.5394 18.0346C38.006 18.5481 38.3359 18.5044 38.8101 18.0251C41.8387 14.9555 44.8902 11.9088 47.9359 8.85822C49.7072 7.0838 51.7611 7.05147 53.5817 8.78024C54.3023 9.46491 54.9926 10.1838 55.6962 10.8875C55.9447 11.1347 56.2045 11.3687 56.5401 11.0339C57.6799 9.89472 58.8121 8.74981 59.9424 7.603C60.0012 7.54215 60.0145 7.43755 60.0809 7.27399C59.8192 7.17509 59.5859 7.0857 59.3526 6.99632C57.6648 6.34969 56.8227 4.96325 57.0048 3.13368C57.1584 1.6084 58.3229 0.419754 59.988 0.151594C60.6157 0.0507968 61.2586 0.0203675 61.8939 0.0165638C64.0236 0.0013491 66.1534 -0.0138659 68.2812 0.0222691C70.4337 0.0603059 72.0722 0.826748 72.5236 3.3581C72.535 3.42656 72.571 3.49123 72.5957 3.55779V12.2416L72.5995 12.2397ZM70.1909 7.89969H70.1928C70.1928 6.61785 70.2023 5.33791 70.1909 4.05607C70.1796 2.77233 69.8211 2.42049 68.5239 2.41098C67.058 2.39957 65.5901 2.40528 64.1241 2.40718C62.918 2.40718 61.71 2.38816 60.5057 2.43C59.6163 2.46233 59.1364 3.08994 59.3052 3.89822C59.4342 4.51822 59.859 4.84724 60.4488 4.89669C61.2491 4.96515 62.0532 4.96325 62.8573 4.98037C63.3826 4.99178 63.9592 5.08116 64.0654 5.6346C64.1469 6.06061 63.9174 6.55509 63.779 7.00393C63.7278 7.16748 63.54 7.2911 63.4054 7.42614C61.433 9.40595 59.4607 11.3896 57.4827 13.3637C56.5326 14.3127 55.8821 14.3146 54.9395 13.3808C53.9287 12.3804 52.9388 11.361 51.9204 10.3683C51.1808 9.64939 50.4317 9.63798 49.6465 10.2998C49.4114 10.4976 49.197 10.722 48.9809 10.9388C45.7341 14.1929 42.4911 17.4488 39.2425 20.701C38.4004 21.5454 37.9491 21.5397 37.0938 20.6896C36.1531 19.7539 35.2258 18.8048 34.2794 17.8748C33.0657 16.6786 32.4607 16.6862 31.2451 17.9034C27.9471 21.2069 24.6548 24.5142 21.3569 27.8158C20.3593 28.8142 19.9326 28.8161 18.937 27.8196C16.7769 25.6591 14.6225 23.4891 12.4605 21.3305C11.5332 20.4043 10.7613 20.3872 9.82256 21.3172C7.53542 23.5861 5.26156 25.8702 2.99717 28.1619C2.24048 28.9264 2.13239 29.8184 2.66719 30.3737C3.21527 30.9424 4.03263 30.8131 4.83294 30.0143C6.52649 28.3236 8.21055 26.6233 9.9041 24.9345C10.858 23.9817 11.4042 23.9817 12.36 24.9345C14.4708 27.0436 16.5759 29.1623 18.6848 31.2733C19.8682 32.4582 20.4181 32.4639 21.5845 31.2942C24.8805 27.9907 28.1747 24.6834 31.4726 21.3818C32.5024 20.351 33.0543 20.3567 34.0974 21.3952C35.0209 22.3137 35.935 23.2418 36.8586 24.1604C37.8599 25.1551 38.4877 25.1475 39.5061 24.1395C39.692 23.9569 39.874 23.7706 40.058 23.5861C43.2364 20.3986 46.413 17.2092 49.5972 14.0274C50.4582 13.1678 51.029 13.1792 51.8919 14.035C52.715 14.8528 53.5323 15.6782 54.3516 16.4998C55.9295 18.0821 56.341 18.0802 57.936 16.4808C60.3616 14.0483 62.789 11.6178 65.2108 9.18153C65.6906 8.69847 66.1818 8.20969 66.9366 8.50448C67.6933 8.80117 67.6174 9.50104 67.6288 10.142C67.6383 10.7582 67.6174 11.3782 67.6781 11.9906C67.7691 12.9034 68.2603 13.3694 69.0132 13.3485C69.7718 13.3275 70.172 12.8483 70.1852 11.8764C70.2023 10.549 70.189 9.21957 70.189 7.89018L70.1909 7.89969Z" fill="white"/>
<path d="M56.9845 38.2967C56.9845 34.1469 56.9807 29.999 56.9845 25.8492C56.9883 23.3425 58.3916 21.9409 60.9083 21.9276C62.6814 21.9181 64.4547 21.9142 66.2279 21.9276C68.6041 21.9466 70.0379 23.3787 70.0398 25.7446C70.0455 34.1146 70.0455 42.4846 70.0398 50.8526C70.0398 52.92 68.919 54.352 66.8537 54.5099C64.6481 54.6773 62.4103 54.6811 60.2028 54.5156C58.0958 54.3558 56.9902 52.9314 56.9864 50.8146C56.9788 46.642 56.9845 42.4693 56.9845 38.2967ZM59.2488 38.213C59.2488 42.3628 59.2432 46.5126 59.2526 50.6606C59.2564 51.8606 59.6357 52.2353 60.8343 52.2448C62.5847 52.26 64.3333 52.2562 66.0837 52.2467C67.4207 52.2391 67.7773 51.8911 67.7792 50.5579C67.7848 42.3533 67.7848 34.1488 67.7792 25.9461C67.7792 24.6453 67.3373 24.2079 66.0173 24.1984C64.3864 24.185 62.7535 24.1869 61.1226 24.1965C59.6376 24.2041 59.2488 24.6054 59.2488 26.1211C59.245 30.1511 59.2488 34.183 59.2488 38.213Z" fill="white"/>
<path d="M38.8134 41.9235C38.8134 38.9604 38.8077 35.9955 38.8134 33.0324C38.8191 30.7578 40.1428 29.3086 42.4205 29.2192C44.3567 29.1431 46.2987 29.1469 48.235 29.2173C50.543 29.301 51.8649 30.7502 51.8668 33.0723C51.8725 38.9756 51.8725 44.8808 51.8668 50.7842C51.8649 52.9447 50.7611 54.3615 48.6105 54.5232C46.4049 54.6886 44.1671 54.6753 41.9596 54.5061C39.9399 54.3501 38.8209 52.9104 38.8134 50.8869C38.8039 47.8991 38.8115 44.9113 38.8115 41.9235H38.8134ZM41.0777 41.8645C41.0777 44.782 41.0702 47.7013 41.0815 50.6187C41.0853 51.8701 41.4532 52.2372 42.6935 52.2467C44.4212 52.26 46.147 52.2562 47.8747 52.2486C49.2591 52.2429 49.6062 51.9024 49.608 50.5236C49.6137 44.7572 49.6137 38.9928 49.608 33.2264C49.608 31.9293 49.1719 31.4824 47.8519 31.4653C46.1716 31.4424 44.4914 31.4424 42.813 31.4653C41.5083 31.4843 41.0815 31.9388 41.0796 33.2492C41.0739 36.121 41.0796 38.9909 41.0796 41.8626L41.0777 41.8645Z" fill="white"/>
<path d="M33.6989 45.4969C33.6989 47.3227 33.7103 49.1504 33.6951 50.9761C33.6799 52.8742 32.5534 54.35 30.6703 54.4831C28.3452 54.6486 25.9917 54.6486 23.6685 54.4831C21.7853 54.35 20.6531 52.8723 20.6474 50.9742C20.6341 47.3455 20.6322 43.7168 20.6474 40.0881C20.655 38.2072 21.7644 36.7599 23.6324 36.6268C25.9803 36.4594 28.3565 36.4613 30.7044 36.6268C32.5458 36.7561 33.678 38.2376 33.6932 40.0919C33.7103 41.8949 33.697 43.6978 33.697 45.4988L33.6989 45.4969ZM22.908 45.535C22.908 47.2638 22.8947 48.9944 22.9118 50.7232C22.9232 51.8415 23.3044 52.2314 24.4081 52.2428C26.2515 52.2618 28.0929 52.2618 29.9363 52.2428C31.0381 52.2314 31.4269 51.8396 31.4307 50.7213C31.444 47.2866 31.444 43.8499 31.4307 40.4152C31.4269 39.2532 31.0438 38.869 29.8984 38.8595C28.0797 38.8424 26.2609 38.8424 24.4403 38.8595C23.2949 38.869 22.9194 39.2551 22.9099 40.419C22.8947 42.125 22.9061 43.8309 22.9061 45.5369L22.908 45.535Z" fill="white"/>
<path d="M2.47329 46.7561C2.47329 45.3582 2.46191 43.9603 2.47519 42.5625C2.49605 40.4515 3.89754 39.027 5.98555 39.008C7.99391 38.9908 10.0022 38.9908 12.0106 39.008C14.1043 39.0251 15.5115 40.4438 15.5229 42.5549C15.538 45.3753 15.538 48.1938 15.5229 51.0143C15.5134 52.8362 14.3926 54.3368 12.6061 54.4623C10.2147 54.6297 7.79287 54.6297 5.40142 54.4642C3.61685 54.3406 2.49605 52.8381 2.47708 51.0219C2.46191 49.6012 2.47329 48.1786 2.47329 46.7561ZM13.2642 46.7599C13.2642 45.4343 13.2793 44.1068 13.2604 42.7812C13.2452 41.6743 12.8602 41.2902 11.7451 41.2807C9.90363 41.2635 8.06028 41.2635 6.21881 41.2807C5.14731 41.2921 4.75284 41.6819 4.74525 42.7489C4.72818 45.4248 4.72818 48.1026 4.74525 50.7784C4.75284 51.8435 5.14921 52.2314 6.22261 52.2429C8.06408 52.2619 9.90743 52.2619 11.7489 52.2429C12.8621 52.2334 13.2452 51.8473 13.2604 50.7385C13.2793 49.4129 13.2642 48.0854 13.2642 46.7599Z" fill="white"/>
</svg>
