<svg width="78" height="79" viewBox="0 0 78 79" fill="none" xmlns="http://www.w3.org/2000/svg">
<path d="M34.6483 78.6365C34.5516 78.606 34.4587 78.5661 34.3601 78.5433C31.2764 77.8719 30.1385 76.6243 29.8635 73.4501C29.7953 72.6704 29.5203 72.2292 28.8167 71.8868C27.235 71.1185 26.4859 69.7758 26.4783 68.0299C26.465 65.2209 26.4897 62.4119 26.4689 59.6047C26.4461 56.5352 26.2545 53.496 25.2096 50.5596C24.2177 47.7715 22.7025 45.3257 20.7055 43.169C17.4758 39.6811 15.2493 35.672 14.2859 30.984C13.3187 26.275 13.588 21.6288 15.3764 17.1842C19.1504 7.80433 26.1407 2.36126 36.1294 1.14028C42.31 0.385247 48.0526 1.9885 53.1199 5.7161C59.1564 10.155 62.5586 16.1591 63.34 23.5896C63.7894 27.863 63.0498 32.0014 61.3146 35.9592C60.0363 38.8728 58.138 41.3357 56.0765 43.713C52.6913 47.6194 50.8745 52.1571 50.846 57.3625C50.8271 60.6774 50.8461 63.9923 50.8385 67.3053C50.8347 68.7944 50.5199 70.1771 49.363 71.2288C49.1032 71.4646 48.8339 71.7556 48.5172 71.8526C47.5462 72.1512 47.3698 72.8435 47.2731 73.7506C46.9602 76.6757 45.7483 77.9461 42.8866 78.5261C42.7633 78.5509 42.6457 78.5984 42.5243 78.6365H34.6502H34.6483ZM43.8822 46.7502C43.8822 49.584 43.8784 52.4177 43.8841 55.2533C43.886 56.3412 44.0093 56.4553 45.1168 56.4667C45.7218 56.4724 46.3287 56.442 46.9336 56.4724C47.6619 56.5104 47.9596 56.1757 48.0563 55.4663C48.2289 54.1902 48.4129 52.9084 48.7125 51.6589C49.7556 47.3093 52.1546 43.7396 55.0809 40.4361C59.2133 35.7709 61.0377 30.2194 60.4782 24.0384C59.7898 16.4159 56.0272 10.6114 49.4218 6.73359C45.2211 4.2669 40.6431 3.47003 35.8526 4.06531C30.7359 4.69862 26.4006 6.96942 22.82 10.6951C18.8583 14.8183 16.7703 19.7574 16.6508 25.4553C16.5257 31.3814 18.5245 36.562 22.5526 40.9344C24.1324 42.6498 25.5358 44.4984 26.613 46.5809C28.0619 49.3805 28.902 52.3587 29.1732 55.4949C29.2339 56.1966 29.5506 56.4895 30.2314 56.4705C30.8118 56.4553 31.3921 56.4724 31.9724 56.4705C33.2013 56.4629 33.2904 56.3773 33.2904 55.1145C33.2923 49.8008 33.2942 44.487 33.2904 39.1733C33.2885 37.009 33.4858 37.0527 31.3181 36.9976C29.1637 36.9443 27.4171 35.149 27.254 33.0113C27.0852 30.7862 28.4905 28.7664 30.514 28.3309C32.9567 27.8041 35.1281 28.8862 35.8374 31.0657C36.0593 31.7485 36.1048 32.5016 36.1503 33.2281C36.1901 33.8538 36.431 34.1657 37.0701 34.1562C37.7263 34.1467 38.3825 34.1638 39.0386 34.1581C40.8175 34.141 41.0129 34.394 41.0717 32.3248C41.1191 30.6568 41.944 29.2951 43.539 28.6124C45.0808 27.9505 46.6037 28.0551 47.971 29.1163C49.4085 30.2308 49.9889 32.2163 49.4199 33.9679C48.8339 35.7728 47.3016 36.9424 45.4127 37.0261C44.3949 37.0717 43.8854 37.6081 43.8841 38.6351C43.8841 41.3433 43.8841 44.0496 43.8841 46.7578L43.8822 46.7502ZM38.6612 59.3423C35.9379 59.3423 33.2146 59.3366 30.4913 59.3442C29.488 59.3461 29.3477 59.4868 29.3439 60.4872C29.3363 62.8398 29.3344 65.1904 29.3439 67.543C29.3496 69.0683 29.8142 69.5285 31.3485 69.5323C34.525 69.54 37.7035 69.5362 40.8801 69.5362C42.6457 69.5362 44.4113 69.5457 46.175 69.5266C47.2181 69.5152 47.7472 69.0341 47.9103 68.0014C47.9577 67.7028 47.9691 67.3966 47.9691 67.0942C47.9748 64.9185 47.9767 62.7447 47.9691 60.569C47.9653 59.4678 47.8439 59.3442 46.7516 59.3423C44.0529 59.3366 41.3542 59.3423 38.6575 59.3423H38.6612ZM41.0129 46.8282C41.0129 43.9222 41.0185 41.0143 41.0091 38.1082C41.0053 37.1935 40.8517 37.0432 39.9527 37.0299C38.995 37.0166 38.0373 37.0375 37.0796 37.0261C36.45 37.0185 36.1579 37.3038 36.1579 37.9409C36.1636 43.8043 36.1636 49.6695 36.1579 55.5329C36.1579 56.1643 36.431 56.4667 37.0663 56.461C37.9728 56.4515 38.8812 56.4686 39.7877 56.461C40.8858 56.4534 41.0091 56.3355 41.011 55.2419C41.0166 52.4367 41.0129 49.6315 41.011 46.8244L41.0129 46.8282ZM38.6233 72.4117C37.0113 72.4136 35.3993 72.4117 33.7873 72.4155C33.336 72.4155 32.9415 72.484 32.8391 73.0565C32.5622 74.6198 33.317 75.5954 34.8816 75.6049C37.3508 75.6201 39.8181 75.6182 42.2873 75.6049C43.7514 75.5973 44.3544 74.9659 44.3469 73.511C44.3412 72.581 44.1914 72.4212 43.2317 72.4136C41.6956 72.4022 40.1594 72.4098 38.6214 72.4098L38.6233 72.4117ZM31.9022 34.1448C33.1444 34.1676 33.3378 33.9641 33.2791 32.8306C33.2696 32.6557 33.2544 32.4788 33.2165 32.3076C33.0894 31.7257 32.7936 31.2692 32.1753 31.1551C31.5116 31.0334 30.8611 31.0562 30.4154 31.6857C30.0266 32.2354 30.0399 32.8268 30.3377 33.3993C30.6942 34.0859 31.3655 34.122 31.9041 34.1448H31.9022ZM43.886 33.0151C43.8765 33.9337 44.0548 34.1372 44.8779 34.1448C46.0935 34.1543 46.744 33.6047 46.7383 32.572C46.7345 31.7409 46.1371 31.1228 45.3349 31.119C44.4075 31.1152 43.8993 31.7808 43.8879 33.017L43.886 33.0151Z" fill="white"/>
<path d="M8.30931 43.6483C7.28332 43.6483 6.57404 42.7735 6.77127 41.9766C6.84144 41.6913 6.9723 41.3832 7.17143 41.1778C8.04191 40.2687 8.91428 39.3559 9.85113 38.5152C10.5794 37.861 11.3911 37.9105 11.9391 38.5114C12.4607 39.0858 12.4398 39.8598 11.7912 40.554C10.9663 41.4384 10.1091 42.2942 9.2253 43.1177C8.92755 43.3954 8.50654 43.538 8.3112 43.6483H8.30931Z" fill="white"/>
<path d="M70.4378 42.0488C70.4682 43.2546 69.3189 43.9887 68.4257 43.4448C67.8776 43.1101 67.4262 42.6099 66.954 42.1591C66.4078 41.6361 65.8654 41.1055 65.3648 40.5407C64.737 39.8332 64.7143 39.0648 65.2472 38.4962C65.7839 37.9218 66.5785 37.8591 67.2764 38.4848C68.2493 39.3577 69.1596 40.3048 70.0566 41.2577C70.2823 41.4973 70.3601 41.8777 70.4378 42.0488Z" fill="white"/>
<path d="M8.28005 8.16187C8.44694 8.23604 8.83003 8.3026 9.06709 8.52702C10.0495 9.46082 11.0375 10.4003 11.9156 11.4292C12.1849 11.743 12.2759 12.3973 12.1602 12.8138C11.9118 13.7095 10.8687 14.0652 10.1557 13.4509C9.01967 12.4695 7.9292 11.4064 6.97528 10.2501C6.27169 9.39616 6.99993 8.17137 8.28005 8.16187Z" fill="white"/>
<path d="M70.638 9.43604C70.344 9.94383 70.1923 10.3584 69.9154 10.657C69.1113 11.5224 68.275 12.363 67.4159 13.1732C66.663 13.8825 65.9442 13.913 65.3412 13.3424C64.721 12.7566 64.6698 12.0168 65.3469 11.2618C66.2022 10.309 67.1295 9.41702 68.0683 8.54407C68.5197 8.12377 69.1322 7.96781 69.6708 8.33677C70.0482 8.59542 70.2985 9.03855 70.638 9.43604Z" fill="white"/>
<path d="M3.34607 27.2847C2.69178 27.2847 2.03371 27.319 1.38323 27.2752C0.541193 27.2182 0.0215534 26.6895 0.000692234 25.9534C-0.0201689 25.1946 0.431201 24.5613 1.25617 24.5119C2.6349 24.4301 4.02501 24.4358 5.40374 24.5119C6.20026 24.5556 6.72747 25.2517 6.69334 25.942C6.65541 26.7104 6.10543 27.2391 5.23495 27.2847C4.60722 27.3171 3.97569 27.2904 3.34607 27.2904C3.34607 27.2885 3.34607 27.2847 3.34607 27.2828V27.2847Z" fill="white"/>
<path d="M73.7965 27.2848C73.1422 27.2848 72.4841 27.3191 71.8336 27.2753C71.0504 27.2221 70.544 26.7067 70.4815 25.9916C70.4227 25.3259 70.8987 24.5918 71.6478 24.5443C73.0986 24.453 74.5646 24.4473 76.0154 24.5386C76.7967 24.588 77.2044 25.2423 77.1703 25.9802C77.1381 26.6839 76.6336 27.2107 75.8352 27.2696C75.1581 27.3191 74.4754 27.2791 73.7965 27.2791C73.7965 27.2791 73.7965 27.281 73.7965 27.2829V27.2848Z" fill="white"/>
<path d="M39.1203 8.33691C45.3332 8.79906 50.2792 11.5491 53.5904 17.0359C54.0057 17.7225 54.3603 18.4604 54.641 19.2116C54.9767 20.1074 54.6809 20.8358 53.9773 21.1458C53.2376 21.4729 52.4885 21.1743 52.0637 20.2957C51.3032 18.7191 50.4669 17.2014 49.2588 15.9138C46.3724 12.8386 42.7748 11.397 38.6197 11.2049C37.6392 11.1592 37.1252 10.6838 37.0987 9.8755C37.0721 9.05581 37.5576 8.53851 38.4983 8.39017C38.6709 8.36354 38.8491 8.35974 39.1203 8.33691Z" fill="white"/>
<path d="M55.961 25.9042C55.9572 26.6782 55.3238 27.2925 54.55 27.2735C53.8142 27.2545 53.2225 26.644 53.2149 25.8947C53.2073 25.191 53.8559 24.5272 54.5595 24.5177C55.3333 24.5063 55.9648 25.132 55.961 25.9042Z" fill="white"/>
</svg>
