<svg width="73" height="73" viewBox="0 0 73 73" fill="none" xmlns="http://www.w3.org/2000/svg">
<path d="M0 57.7986C0.0474117 57.3764 0.134649 56.9561 0.136546 56.5339C0.147925 53.1182 0.140339 49.7025 0.146028 46.2867C0.149821 43.6869 1.37684 41.9943 3.865 41.2126C5.19632 40.7942 6.54092 40.4158 7.88741 40.0525C8.5398 39.8775 8.80151 39.5105 8.81668 38.8315C8.83755 37.8749 8.70479 37.0685 7.97655 36.3135C6.91642 35.2161 6.47834 33.7898 6.5523 32.2607C6.60161 31.228 6.31524 30.4463 5.57941 29.6628C3.29227 27.2265 3.24865 23.4552 5.39166 20.9561C6.19956 20.0147 7.26348 19.4366 8.44687 19.1075C10.8819 18.4286 13.3132 18.5332 15.7255 19.2407C16.2015 19.3795 16.6756 19.5336 17.1403 19.7104C17.9937 20.0375 18.7371 19.9272 19.4464 19.3168C20.0969 18.7557 20.6525 18.8451 21.2082 19.5412C23.3512 22.2285 23.3664 26.2166 21.2879 28.8716C20.3036 30.1287 19.5697 31.285 19.6455 32.972C19.71 34.4155 18.9306 35.6517 17.9634 36.7129C17.182 37.5725 17.4437 38.5805 17.5822 39.5447C17.6106 39.7387 18.024 39.9403 18.2933 40.0259C19.691 40.4671 21.1115 40.8418 22.5054 41.2963C24.8058 42.0437 26.1068 43.8543 26.1163 46.2601C26.1239 47.8729 26.1295 49.4856 26.103 51.0984C26.0973 51.4369 26.0366 51.8648 25.828 52.0855C25.6061 52.3175 25.1301 52.5134 24.8532 52.4297C24.5384 52.3346 24.1838 51.9523 24.0946 51.6252C23.9543 51.1136 24.0074 50.545 24.0036 50.001C23.9941 48.7686 24.0112 47.5344 23.996 46.302C23.9752 44.712 23.2412 43.7269 21.7184 43.259C20.497 42.8825 19.2624 42.5515 18.043 42.1731C17.4646 41.9943 17.0891 42.1141 16.7288 42.6409C15.1452 44.9498 11.6178 45.0886 9.8844 42.8691C9.2889 42.1065 8.76169 41.903 7.86086 42.2415C6.80074 42.639 5.68182 42.8748 4.59514 43.202C2.92056 43.7059 2.27197 44.5694 2.27007 46.3229C2.26249 50.3548 2.27007 54.3867 2.26249 58.4186C2.26249 58.8427 2.23783 59.2725 2.17146 59.6928C2.09181 60.1987 1.82061 60.5886 1.27632 60.6628C0.732037 60.7369 0.383087 60.444 0.1612 59.9686C0.111892 59.8621 0.0568941 59.7556 0.00568941 59.6491C0.00568941 59.0329 0.00568941 58.4148 0.00568941 57.7986H0ZM19.2397 27.8655C19.3876 27.7914 19.4616 27.7723 19.509 27.7267C20.6412 26.5951 21.0641 23.4247 20.2372 22.0763C20.1405 21.9185 19.8143 21.7397 19.6816 21.7929C18.227 22.3787 16.8975 21.8443 15.5416 21.4069C13.5711 20.7717 11.5685 20.6081 9.52027 21.017C6.32093 21.656 4.90996 25.0337 6.72298 27.7628C7.42088 28.8126 7.65225 28.805 8.30653 27.7115C8.36722 27.6107 8.42412 27.5061 8.48101 27.4015C9.10495 26.2547 9.46717 26.1425 10.6335 26.6883C12.6457 27.6259 14.6256 27.9625 16.6017 26.5266C17.3432 25.9865 18.0847 26.2014 18.6461 26.945C18.8566 27.2246 19.0292 27.5327 19.2416 27.8655H19.2397ZM17.6599 31.614C17.5879 30.9807 17.548 30.3398 17.4342 29.7141C17.2711 28.8164 17.1403 28.805 16.302 29.1017C15.6212 29.3414 14.8892 29.5924 14.1875 29.5734C13.1141 29.5448 12.0483 29.2824 10.9768 29.1302C10.6828 29.0884 10.2296 28.9534 10.112 29.0903C9.58286 29.7046 8.87927 30.3474 8.73134 31.0796C8.23067 33.5672 9.56769 35.819 11.8928 36.8308C12.731 37.1959 13.5389 37.2017 14.3544 36.7947C16.4822 35.7296 17.7813 34.1435 17.6618 31.616L17.6599 31.614ZM15.3254 39.9802C15.3254 39.7672 15.3348 39.5542 15.3235 39.3412C15.3045 38.9875 15.1281 38.7897 14.7678 38.9323C13.683 39.3621 12.6058 39.3222 11.5059 38.9856C11.3617 38.9418 10.9825 39.1548 10.9692 39.2785C10.863 40.1875 10.8611 41.0947 11.6974 41.7337C12.4996 42.348 13.3872 42.4755 14.2994 42.0609C15.1755 41.6634 15.369 40.8627 15.3292 39.9802H15.3254Z" fill="white"/>
<path d="M36.482 0C37.4757 0.197791 38.4998 0.298589 39.4556 0.612393C43.6392 1.98552 46.2715 5.67699 46.2753 10.0779C46.2791 13.9899 46.2905 17.9039 46.2658 21.816C46.2601 22.5748 46.4422 23.1017 47.1572 23.4934C48.1471 24.0355 48.7806 24.9293 49.1333 26.0058C49.3666 26.719 49.1428 27.2648 48.5644 27.4892C48.0125 27.7022 47.4966 27.4835 47.2198 26.7988C46.7494 25.6387 45.9055 25.0073 44.7145 24.7163C43.4515 24.4082 42.2055 24.0336 40.9557 23.6665C40.5025 23.5334 40.1858 23.6171 39.9525 24.0526C38.606 26.582 34.0564 26.5763 32.7668 24.0792C32.5335 23.6266 32.1827 23.5125 31.701 23.6513C30.2691 24.0602 28.8183 24.4158 27.3998 24.8666C26.2353 25.2374 25.5848 26.1009 25.4255 27.3218C25.3819 27.6509 25.3838 27.9875 25.3061 28.307C25.1638 28.8966 24.7599 29.1856 24.1568 29.1286C23.5879 29.0753 23.3508 28.6912 23.3053 28.1606C23.1327 26.1351 23.8894 24.5223 25.5697 23.4174C26.2164 22.9913 26.4212 22.5083 26.4174 21.7761C26.3946 17.9344 26.4041 14.0926 26.4079 10.2509C26.4136 4.81356 30.1629 0.680859 35.5754 0.131227C35.786 0.112209 35.9927 0.0456442 36.1994 0C36.2942 0 36.389 0 36.4839 0H36.482ZM44.157 15.3992C44.157 13.6438 44.1115 11.8865 44.1664 10.133C44.303 5.73975 40.5101 2.10914 36.2468 2.24037C31.9684 2.3735 28.5983 5.61804 28.532 9.9257C28.5187 10.7796 28.5282 11.6336 28.5282 12.4875C28.5282 15.3345 28.5282 18.1816 28.5282 21.0286C28.5282 22.3086 28.5414 22.3181 29.7419 21.9853C30.3355 21.8217 30.9405 21.6924 31.5151 21.4775C31.7711 21.3824 32.1125 21.1409 32.1523 20.9183C32.287 20.1766 32.342 19.4273 31.7503 18.7769C30.565 17.4741 29.9828 15.9374 30.0928 14.1554C30.1174 13.7541 30.0965 13.349 30.0965 12.9458C30.0984 11.2779 30.199 11.2113 31.7806 10.7663C34.2593 10.0683 36.6982 9.31711 37.8778 6.6184C38.2552 5.75687 39.1844 5.89951 39.7268 6.73061C40.2294 7.49896 40.7642 8.25969 41.3767 8.94055C42.105 9.74883 42.6038 10.6465 42.6644 11.7229C42.7251 12.8089 42.7403 13.9082 42.6512 14.9903C42.5279 16.4737 41.9115 17.7613 40.895 18.8682C39.9525 19.8932 40.3526 21.2588 41.6688 21.6429C42.1922 21.7951 42.7138 21.9491 43.2391 22.0899C44.0375 22.3048 44.1513 22.223 44.1551 21.3786C44.1646 19.3855 44.1589 17.3923 44.1589 15.4011L44.157 15.3992ZM40.6504 13.3775C40.7983 11.9207 40.347 10.7264 39.2508 9.74123C38.9094 9.43503 38.6838 9.36276 38.3746 9.70509C36.9693 11.2646 35.1032 12.0044 33.1669 12.5826C32.4406 12.7994 32.139 13.174 32.2111 13.9025C32.2301 14.0907 32.2111 14.2809 32.2149 14.4711C32.2396 16.6925 33.7681 18.4231 35.8884 18.6323C38.1224 18.8529 40.0208 17.476 40.4551 15.2813C40.5783 14.6594 40.5878 14.0147 40.6504 13.3794V13.3775ZM38.3234 21.6848C38.1945 21.3672 38.6648 20.6331 37.7147 20.654C36.8025 20.6749 35.8884 20.6483 34.9762 20.6692C34.7922 20.673 34.5248 20.7358 34.4414 20.867C34.0393 21.4813 34.4414 23.1511 35.0899 23.4972C35.858 23.908 36.6944 23.9271 37.4757 23.5733C38.2172 23.2386 38.3727 22.533 38.3234 21.6848Z" fill="white"/>
<path d="M22.8521 65.6647C22.8521 67.4448 22.8521 69.2231 22.8521 71.0032C22.8521 71.2865 22.8483 71.5737 22.8104 71.8552C22.7421 72.3687 22.4368 72.6635 21.919 72.7072C21.407 72.751 21.0201 72.5227 20.8722 72.0416C20.7641 71.6878 20.7432 71.2961 20.7413 70.9214C20.7299 67.4106 20.7261 63.8998 20.7299 60.3871C20.7318 57.5381 22.3192 55.4119 25.0615 54.5903C26.7835 54.0749 28.5074 53.5595 30.2445 53.0936C30.9557 52.9034 31.3103 52.5477 31.2364 51.7965C31.2117 51.5378 31.2117 51.2735 31.2364 51.0148C31.3369 50.0392 31.0638 49.2594 30.3602 48.5158C28.9777 47.0533 28.3613 45.2637 28.5339 43.2306C28.623 42.196 28.3651 41.4048 27.5667 40.5889C24.9135 37.8788 24.4262 34.2805 26.095 31.0931C27.0736 29.2236 28.6951 28.1528 30.6617 27.6412C33.8345 26.8177 36.9922 27.0345 40.0986 28.0539C40.3679 28.1433 40.6467 28.2099 40.9065 28.324C42.0842 28.8451 43.1215 28.75 44.0906 27.801C44.6785 27.2247 45.4182 27.4073 45.9625 28.1699C47.5745 30.4274 48.132 32.9093 47.5763 35.6537C47.1477 37.7647 45.989 39.4174 44.5648 40.956C44.2499 41.2964 44.0906 41.8556 44.0262 42.3367C43.9332 43.0119 44.0318 43.7118 43.9844 44.3964C43.8782 45.9483 43.2315 47.291 42.2056 48.4207C41.519 49.1758 41.2592 49.9821 41.2915 50.9958C41.354 52.9509 41.2232 52.7417 42.9907 53.2609C44.5572 53.7212 46.1331 54.151 47.6863 54.6493C50.2655 55.4785 51.8756 57.5477 51.9231 60.2654C51.9894 63.9892 51.9534 67.7149 51.9439 71.4387C51.942 72.3002 51.6386 72.6787 51.026 72.7167C50.349 72.7567 49.89 72.3326 49.8673 71.4824C49.8218 69.7289 49.8369 67.9716 49.8313 66.2162C49.8256 64.3886 49.8407 62.5628 49.8218 60.7351C49.799 58.4605 48.7939 57.1521 46.63 56.5302C45.0616 56.0775 43.4895 55.6363 41.9287 55.1589C41.373 54.9897 41.0013 55.0505 40.7016 55.6097C38.9626 58.8656 34.1133 58.8067 32.1429 55.7885C31.6991 55.1076 31.2478 54.9574 30.493 55.2008C28.8942 55.7162 27.269 56.1422 25.6589 56.6272C23.7681 57.1977 22.854 58.4358 22.8426 60.3947C22.8426 60.4423 22.8426 60.4898 22.8426 60.5373C22.8426 62.2452 22.8426 63.9531 22.8426 65.6609H22.8483L22.8521 65.6647ZM34.6823 29.273C33.9294 29.3263 33.1727 29.3491 32.4236 29.4423C31.9115 29.5069 31.3995 29.6343 30.9083 29.7941C28.4846 30.5815 27.14 32.5347 27.2652 35.0964C27.3429 36.6845 28.0484 38.0024 29.0877 39.1645C29.4025 39.5163 29.6756 39.4098 29.8899 39.0751C30.235 38.5388 30.5726 37.9948 30.8779 37.4338C31.4222 36.4315 31.8508 36.2832 32.8863 36.7796C35.4939 38.0272 38.0637 38.5502 40.6315 36.616C41.392 36.0416 42.3023 36.344 42.839 37.158C43.0078 37.4148 43.1348 37.6982 43.2695 37.9739C43.6146 38.67 43.7872 38.7175 44.2215 38.088C45.8278 35.7659 46.0724 33.2821 45.018 30.6651C44.836 30.2144 44.5553 30.1174 44.1248 30.357C43.1121 30.92 42.0519 30.939 40.9672 30.5853C40.4494 30.416 39.9279 30.262 39.4139 30.087C37.8797 29.5621 36.3189 29.2197 34.6804 29.273H34.6823ZM42.0045 42.6601C41.8547 41.6102 41.7163 40.5585 41.5494 39.5106C41.4545 38.9134 41.1682 38.7765 40.6125 39.1093C39.5334 39.7559 38.3424 40.1344 37.0889 39.9785C35.786 39.8187 34.5021 39.4954 33.2068 39.2577C32.9432 39.2101 32.5241 39.1093 32.4217 39.2348C31.811 39.9785 30.9348 40.7202 30.7774 41.5798C30.4076 43.5996 30.4133 45.703 32.0784 47.291C32.8048 47.9852 33.6468 48.5824 34.5097 49.1016C35.731 49.8376 37.0016 49.7178 38.2211 49.016C40.6618 47.6124 42.2378 45.7049 42.0045 42.6582V42.6601ZM39.2527 52.6523C39.2281 52.6485 39.2034 52.6466 39.1788 52.6428C39.1788 52.3119 39.1845 51.9791 39.1788 51.6482C39.1693 51.2183 38.9834 51.0167 38.5473 51.2107C37.0415 51.8802 35.5357 51.922 34.0223 51.2336C33.6278 51.0529 33.3699 51.167 33.3661 51.6367C33.3623 52.2282 33.3282 52.8254 33.3908 53.4112C33.5292 54.6968 34.6785 55.7238 36.1084 55.9007C37.4435 56.0642 38.5928 55.4442 39.0024 54.2518C39.175 53.7497 39.175 53.1886 39.2546 52.6542L39.2527 52.6523Z" fill="white"/>
<path d="M53.693 39.986C52.9875 39.986 52.282 40.0069 51.5785 39.9803C50.4937 39.9404 50.1258 39.579 50.122 38.495C50.1087 35.2675 50.0594 32.0401 50.1315 28.8165C50.2566 23.2137 55.7848 18.8414 61.2713 19.9387C65.8873 20.863 69.0525 24.6344 69.1132 29.3528C69.1511 32.3178 69.1284 35.2847 69.117 38.2496C69.1132 39.56 68.677 39.9765 67.3495 39.9917C66.6971 39.9993 66.0466 39.9917 65.3942 39.9917C65.3847 40.0507 65.3772 40.1115 65.3677 40.1705C65.6218 40.2618 65.874 40.3645 66.132 40.4425C66.9474 40.6897 67.7667 40.9198 68.5822 41.169C71.3245 42.0115 72.6975 43.9152 72.6615 46.7699C72.6103 50.8018 72.5781 54.8318 72.5363 58.8637C72.5325 59.149 72.5401 59.4342 72.5117 59.7176C72.4567 60.2729 72.1798 60.6723 71.5976 60.7275C71.0078 60.7845 70.6531 60.4308 70.5261 59.8945C70.4351 59.5084 70.4237 59.0957 70.4218 58.6963C70.4142 54.6397 70.4218 50.5831 70.418 46.5245C70.418 44.5409 69.8851 43.7992 67.9905 43.2039C66.7047 42.7988 65.4018 42.4451 64.1122 42.0533C63.6571 41.9164 63.384 42.0248 63.128 42.4584C61.5899 45.0601 57.8425 45.1533 56.1888 42.6106C55.7962 42.0077 55.4226 41.9012 54.7892 42.1047C53.528 42.5098 52.246 42.8502 50.9773 43.2325C49.481 43.6832 48.711 44.6969 48.6901 46.2716C48.6712 47.7664 48.6882 49.2613 48.6788 50.7561C48.6788 51.0623 48.6731 51.378 48.601 51.6747C48.4777 52.1882 48.1421 52.5115 47.5883 52.4887C47.044 52.4659 46.7159 52.1464 46.6135 51.6196C46.5642 51.3666 46.568 51.1004 46.5661 50.8398C46.5623 49.3221 46.5604 47.8026 46.5661 46.2849C46.5775 43.7421 47.96 41.9069 50.4007 41.1842C51.5083 40.8571 52.6158 40.5337 53.7234 40.2085C53.712 40.1344 53.7025 40.0621 53.6911 39.9879L53.693 39.986ZM54.9921 37.8236C55.0016 37.6201 55.0149 37.5688 55.0035 37.5269C54.9845 37.4604 54.9618 37.3862 54.9181 37.3348C53.3744 35.4444 53.4313 33.2002 53.5641 30.9618C53.6266 29.8948 54.0818 28.9706 54.848 28.1813C55.3695 27.6431 55.819 27.0193 56.2267 26.386C56.5169 25.9352 56.7331 25.4483 57.357 25.4521C57.9904 25.456 58.2332 25.9447 58.4513 26.4259C58.9538 27.5366 59.7598 28.3582 60.8768 28.8032C62.0583 29.2748 63.2683 29.6856 64.4877 30.0508C65.1723 30.2562 65.5592 30.6118 65.5706 31.3364C65.6047 33.3961 65.8115 35.4901 64.3303 37.236C64.0439 37.5745 64.2014 37.8198 64.6262 37.8445C65.0984 37.8712 65.5725 37.8445 66.0447 37.8674C66.7464 37.9035 67.0138 37.5764 67.01 36.886C66.9911 34.4193 67.0328 31.9526 66.9911 29.4879C66.955 27.3939 66.3083 25.4826 64.7494 24.0448C62.4869 21.9604 59.8395 21.3499 56.9303 22.4758C54.1273 23.5598 52.5153 25.707 52.3086 28.6644C52.1114 31.4715 52.2422 34.3052 52.2688 37.1256C52.2707 37.3577 52.5513 37.7685 52.7334 37.7875C53.4711 37.8636 54.2221 37.8198 54.9959 37.8198L54.9921 37.8236ZM55.6578 32.3349C55.6578 32.8047 55.6369 33.1622 55.6616 33.516C55.8171 35.8514 57.5372 37.5022 59.7143 37.4204C61.9559 37.3367 63.4598 35.6688 63.4617 33.2649C63.4617 32.0915 63.4295 32.0458 62.2916 31.6636C60.6 31.093 58.9671 30.4179 57.6984 29.0904C57.4006 28.7785 57.1598 28.8621 56.8525 29.1265C55.8209 30.0147 55.4947 31.1387 55.6578 32.3349ZM61.4647 40.3911C61.4856 39.4345 61.3699 39.3698 60.4084 39.4687C59.7845 39.5334 59.1435 39.4307 58.5157 39.4687C58.2711 39.4839 57.8539 39.657 57.8311 39.8072C57.7192 40.528 57.6434 41.3002 58.2957 41.8441C58.9823 42.4166 59.7864 42.4032 60.5658 42.0894C61.3073 41.7909 61.4572 41.1138 61.4666 40.3892L61.4647 40.3911Z" fill="white"/>
</svg>
