<svg width="71" height="73" viewBox="0 0 71 73" fill="none" xmlns="http://www.w3.org/2000/svg">
<path d="M70.1413 60.6033C70.1413 61.6474 70.0693 62.6972 70.1546 63.7337C70.3955 66.6093 68.8688 68.3704 66.5532 69.6522C64.3116 70.8923 61.8822 71.6054 59.3751 72.0334C53.4221 73.0489 47.5032 72.9557 41.6583 71.3145C39.4091 70.683 37.2718 69.8006 35.5232 68.1726C35.2331 67.9026 34.9619 67.8531 34.6566 68.1422C32.8435 69.8519 30.6095 70.7896 28.2597 71.3867C20.9223 73.2505 13.6 73.2258 6.35743 70.8732C4.47993 70.2627 2.72002 69.3955 1.32612 67.9159C0.489772 67.0277 0.0232327 65.9912 0.0137503 64.7797C-0.00521436 62.005 -0.00331975 59.2283 0.011852 56.4516C0.0194379 54.7989 0.870954 53.5798 2.09987 52.5851C3.87117 51.1531 5.9497 50.3067 8.12685 49.8427C10.7098 49.2931 13.3421 48.9621 15.963 48.6008C16.6496 48.5057 16.9113 48.2623 16.9132 47.5795C16.9132 46.3471 16.9606 45.1147 17.0137 43.8842C17.0649 42.7241 17.6225 41.7389 18.4569 41.0353C19.4412 40.2042 20.5658 39.5214 21.6866 38.8767C22.4092 38.4602 23.0919 38.7245 23.3763 39.3445C23.6456 39.9303 23.3631 40.4723 22.6595 40.9097C21.7606 41.4689 20.8123 41.9881 20.031 42.688C18.9974 43.6104 19.0107 44.8903 20.0651 45.7918C20.8806 46.4897 21.808 47.1307 22.7941 47.5377C26.4885 49.061 30.3516 49.702 34.3588 49.7457C38.7908 49.7951 43.1053 49.3102 47.2112 47.589C48.277 47.1421 49.3011 46.465 50.1583 45.6872C51.1786 44.761 51.1312 43.54 50.0692 42.6442C49.1797 41.893 48.1575 41.2331 47.0917 40.769C43.9947 39.4187 40.6892 38.8957 37.3419 38.7569C34.5314 38.6408 31.7113 38.6542 28.9197 39.1505C28.6011 39.2076 28.1972 39.2685 27.9506 39.1258C27.6263 38.9375 27.2319 38.5591 27.211 38.2396C27.1864 37.8801 27.5107 37.4693 27.7534 37.1346C27.8539 36.9977 28.1384 36.971 28.347 36.9406C34.5845 36.0201 40.7632 36.1723 46.7845 38.2091C48.1992 38.6884 49.5381 39.4605 50.8145 40.2574C52.4587 41.2825 53.2211 42.8819 53.2325 44.8275C53.2381 45.729 53.2325 46.6305 53.2419 47.5319C53.2533 48.403 53.3595 48.519 54.2091 48.5799C57.5488 48.8176 60.8638 49.2379 64.0006 50.4627C65.3964 51.0066 66.7467 51.7407 67.9908 52.5813C69.4643 53.576 70.2134 55.0537 70.1508 56.9023C70.1072 58.1347 70.1432 59.369 70.1432 60.6033H70.1413ZM67.7689 60.4892C66.8946 60.9437 66.191 61.3773 65.4362 61.693C59.3334 64.2396 52.9802 64.7398 46.4981 63.8402C43.1622 63.3781 39.9041 62.5736 36.9607 60.8087C36.462 60.5101 36.2344 60.6508 36.2173 61.2727C36.1889 62.2921 36.2287 63.3115 36.1984 64.3309C36.1642 65.51 36.6232 66.4648 37.6302 67.0049C39.0393 67.7618 40.4635 68.5815 41.9845 69.0227C48.2713 70.8523 54.6301 70.8333 60.989 69.3613C62.9803 68.901 64.8711 68.1536 66.5495 66.9421C67.4408 66.2974 67.896 65.4473 67.8808 64.3385C67.8675 63.3438 67.8846 62.3473 67.8751 61.3507C67.8732 61.1035 67.8163 60.8562 67.7708 60.4873L67.7689 60.4892ZM2.37484 60.4835C2.32743 60.86 2.27245 61.1073 2.27055 61.3564C2.26107 62.3758 2.27055 63.3971 2.26676 64.4184C2.26296 65.472 2.71432 66.2765 3.54308 66.9098C4.96353 67.9938 6.5869 68.6595 8.28045 69.114C14.626 70.8162 21.0001 70.8542 27.3779 69.2814C29.227 68.825 30.985 68.1289 32.5496 67.0087C33.2702 66.4933 33.8486 65.841 33.8998 64.9319C33.97 63.7014 33.9454 62.4652 33.9188 61.2328C33.9055 60.6299 33.6571 60.5044 33.1413 60.8372C31.3813 61.9783 29.4014 62.5451 27.4139 63.0833C23.3498 64.1845 19.2136 64.4165 15.0262 64.116C11.4286 63.8573 7.95996 63.0814 4.63924 61.6702C3.9072 61.3602 3.22446 60.9361 2.37295 60.4873L2.37484 60.4835ZM50.7557 48.3878C45.7793 51.1302 40.5451 52.0374 35.0738 52.0412C29.5873 52.045 24.3417 51.115 19.39 48.3916C19.352 48.8081 19.3065 49.0839 19.3046 49.3596C19.2951 50.3315 19.3407 51.3052 19.2914 52.2751C19.2307 53.4219 19.7275 54.2645 20.6397 54.8464C21.4742 55.377 22.3428 55.8829 23.255 56.2576C26.1736 57.4558 29.2478 57.9369 32.3808 58.1575C36.2818 58.4314 40.1297 58.1499 43.9265 57.2332C45.8666 56.7654 47.7308 56.0845 49.3959 54.9434C50.3574 54.2854 50.9282 53.4429 50.8543 52.2067C50.7974 51.2615 50.8486 50.3105 50.8391 49.3615C50.8372 49.0858 50.7917 48.81 50.7538 48.3859L50.7557 48.3878ZM41.1311 60.164C41.3738 60.2933 41.4326 60.337 41.4971 60.358C41.8328 60.4702 42.1665 60.5938 42.5079 60.6851C46.4715 61.733 50.4882 62.1248 54.5884 61.8509C57.9698 61.6246 61.2545 61.0122 64.3647 59.6638C65.3243 59.2492 66.2479 58.6539 67.0388 57.9692C68.1501 57.0069 68.1538 55.7992 67.0558 54.8312C66.2517 54.1237 65.3281 53.4904 64.3552 53.0511C61.0952 51.5791 57.6 51.1226 54.0726 50.8678C53.3842 50.8183 53.2135 51.2291 53.24 51.8054C53.3595 54.3006 52.0737 55.9704 50.0711 57.2047C47.6531 58.6939 44.9676 59.4261 42.2064 59.9262C41.9181 59.9795 41.6317 60.0518 41.1292 60.1621L41.1311 60.164ZM28.8097 60.2838C28.8059 60.2267 28.8003 60.1697 28.7965 60.1145C28.5082 60.0518 28.2218 59.9814 27.9317 59.9262C25.178 59.3994 22.4603 58.7433 20.0784 57.1876C19.2781 56.6646 18.5612 55.9799 17.9031 55.2781C16.9985 54.3158 16.9492 53.0492 16.9037 51.8054C16.8752 51.018 16.6989 50.824 16.001 50.8735C13.2587 51.0694 10.5392 51.4079 7.90875 52.2466C6.19434 52.7943 4.48942 53.3877 3.16758 54.7076C1.98039 55.8924 1.98797 57.1153 3.30412 58.1689C4.05322 58.768 4.89906 59.291 5.77902 59.6676C8.91957 61.0122 12.2232 61.6341 15.6293 61.8547C19.7787 62.1248 23.841 61.7102 27.8444 60.6261C28.1725 60.5367 28.4873 60.3998 28.8097 60.2838Z" fill="white"/>
<path d="M35.0174 32.6138C33.1475 32.6138 31.2794 32.6233 29.4095 32.6119C26.9479 32.5947 25.4554 31.1398 25.4345 28.6732C25.4042 25.1395 25.4269 21.604 25.4231 18.0685C25.4231 16.8989 25.3378 16.8209 24.1715 16.8095C23.6993 16.8057 23.2214 16.8266 22.7529 16.7714C20.9854 16.5584 20.0941 14.7308 20.9987 13.196C21.1182 12.9944 21.268 12.8042 21.433 12.6368C25.3606 8.69242 29.2825 4.7385 33.2442 0.828314C33.6481 0.428928 34.2815 0.187394 34.8524 0.0504613C35.6091 -0.130213 36.2956 0.191197 36.8456 0.744633C40.8282 4.73469 44.8183 8.71905 48.7839 12.7281C49.478 13.4299 49.7511 14.3162 49.3471 15.2823C48.9432 16.2465 48.1846 16.7524 47.1377 16.7981C46.6181 16.8209 46.0966 16.8228 45.5769 16.8152C44.9814 16.8057 44.7045 17.089 44.7216 17.6824C44.7292 17.9202 44.7178 18.156 44.7178 18.3937C44.7178 21.739 44.7254 25.0844 44.714 28.4278C44.7045 31.176 43.2727 32.6062 40.5494 32.6138C38.7041 32.6195 36.8588 32.6138 35.0136 32.6138H35.0174ZM23.0753 14.301C23.1019 14.3827 23.1265 14.4626 23.1531 14.5444C24.0425 14.5444 24.932 14.5406 25.8214 14.5444C27.405 14.5501 27.6818 14.8259 27.6837 16.4158C27.6875 20.3545 27.6837 24.2932 27.6875 28.2319C27.6894 29.9036 28.1275 30.3411 29.7945 30.343C33.1778 30.3487 36.563 30.3449 39.9463 30.343C42.1538 30.343 42.4553 30.0425 42.4572 27.8478C42.4572 23.9319 42.4534 20.0179 42.4648 16.102C42.4686 14.9438 42.827 14.5748 43.9213 14.5463C44.7254 14.5273 45.5314 14.5463 46.3355 14.533C46.5688 14.5292 46.802 14.4683 47.1738 14.4113C46.9045 14.1108 46.7584 13.9301 46.5953 13.7665C42.9996 10.1568 39.402 6.55095 35.8025 2.94506C35.1065 2.24709 35.0401 2.24899 34.3271 2.96218C30.7446 6.55095 27.1641 10.1416 23.5836 13.7342C23.4053 13.913 23.2441 14.1089 23.0753 14.2971V14.301Z" fill="white"/>
<path d="M19.2986 27.2904C19.2986 29.5878 19.3062 31.8871 19.291 34.1845C19.2872 34.6048 19.2284 35.0365 19.1184 35.4416C18.9857 35.9342 18.5969 36.1529 18.0924 36.1491C17.588 36.1472 17.2144 35.9171 17.0759 35.4264C16.9754 35.067 16.9128 34.6828 16.9128 34.31C16.9015 29.5726 16.9015 24.8351 16.9128 20.0957C16.9128 19.702 16.928 19.2361 17.129 18.9318C17.3301 18.6275 17.7738 18.3156 18.1076 18.3194C18.4414 18.3213 18.9003 18.637 19.0729 18.947C19.2758 19.3102 19.2834 19.8123 19.2872 20.2554C19.3062 22.6004 19.2967 24.9454 19.2948 27.2904H19.2986Z" fill="white"/>
<path d="M53.2401 27.2617C53.2401 29.5363 53.2439 31.8109 53.2363 34.0836C53.2363 34.4374 53.2192 34.7968 53.1566 35.1429C53.0466 35.7363 52.7242 36.1395 52.0643 36.149C51.3683 36.1585 51.0421 35.7382 50.9226 35.1144C50.8695 34.8367 50.8524 34.5496 50.8505 34.2662C50.8467 29.5515 50.8467 24.8388 50.8505 20.1241C50.8505 19.8179 50.8808 19.5079 50.9453 19.2093C51.0686 18.6388 51.4043 18.2812 52.0226 18.2736C52.6768 18.2641 53.0296 18.6369 53.1452 19.2397C53.2154 19.6087 53.2344 19.9929 53.2363 20.3694C53.2439 22.6669 53.2401 24.9643 53.2401 27.2636V27.2617Z" fill="white"/>
<path d="M11.9254 34.5443C11.9254 36.914 11.9254 39.2837 11.9254 41.6534C11.9254 41.8664 11.9273 42.0813 11.9121 42.2924C11.859 43.0304 11.4626 43.4773 10.8596 43.4925C10.302 43.5077 9.83927 43.0912 9.72548 42.4275C9.67049 42.1023 9.66671 41.7675 9.66671 41.4366C9.66291 36.7923 9.66291 32.1461 9.6686 27.5018C9.6686 27.1253 9.68566 26.7373 9.77669 26.3759C9.92082 25.8016 10.3229 25.4897 10.9297 25.5448C11.5404 25.6 11.878 25.9899 11.897 26.5813C11.933 27.7186 11.9235 28.8559 11.9254 29.9932C11.9292 31.5109 11.9254 33.0267 11.9254 34.5443Z" fill="white"/>
<path d="M58.2199 34.4641C58.2199 32.0697 58.2199 29.6772 58.2218 27.2828C58.2218 26.9766 58.1573 26.6095 58.2977 26.3756C58.4968 26.0466 58.842 25.6244 59.1568 25.5958C59.5114 25.5635 60.0064 25.8412 60.2415 26.1417C60.4577 26.4174 60.4691 26.9024 60.471 27.2942C60.4843 32.0811 60.4824 36.868 60.4748 41.655C60.4748 42.0068 60.4407 42.372 60.3383 42.7048C60.1733 43.2354 59.7731 43.5378 59.208 43.4769C58.6504 43.4161 58.3091 43.0661 58.2559 42.4956C58.218 42.0962 58.2218 41.6911 58.2199 41.2879C58.2161 39.0133 58.2199 36.7368 58.2199 34.4622V34.4641Z" fill="white"/>
</svg>
